<svg width="184" height="42" viewBox="0 0 184 42" fill="none" xmlns="http://www.w3.org/2000/svg">
<g clip-path="url(#clip0_1_2)">
<path d="M24.5798 10.5555L27.5269 5.4508H33.7495L36.8608 10.8369L34.7501 14.4954L37.5565 19.3422L42.4658 10.8369L36.5559 0.596245H24.7283L12.5802 21.6405L15.2068 26.1901H9.31256L6.20127 20.804L9.31256 15.4101H13.5339L16.3325 10.5555H6.50615L0.596252 20.7962L6.51396 31.0369H30.8024L33.429 26.4872L36.3761 31.5997L33.2648 36.9859H27.0422L24.9316 33.3274H19.3265L24.2358 41.8404H36.0712L41.9811 31.5997L29.833 10.5555H24.5798ZM33.2648 26.198L15.5508 26.1901L24.4078 10.8526L33.2648 26.198Z" fill="#FF763C"/>
</g>
<g clip-path="url(#clip1_1_2)">
<path d="M59.6511 29.7672H55.7821V13.0724H63.0113C64.5059 13.0724 65.7938 13.3144 66.8749 13.7985C67.9561 14.2825 68.79 14.9786 69.3765 15.8866C69.9666 16.7912 70.2616 17.8724 70.2616 19.1302C70.2616 20.3704 69.9666 21.4428 69.3765 22.3473C68.79 23.2554 67.9561 23.9514 66.8749 24.4355C65.7938 24.9195 64.5059 25.1616 63.0113 25.1616H57.9339L59.6511 23.4232V29.7672ZM59.6511 14.3815V23.8525L57.9339 22.0134H62.794C63.9882 22.0134 64.8786 21.759 65.4652 21.2502C66.0552 20.7414 66.3502 20.0347 66.3502 19.1302C66.3502 18.208 66.0552 17.4925 65.4652 16.9837C64.8786 16.4749 63.9882 16.2205 62.794 16.2205H57.9339L59.6511 14.3815ZM76.8654 29.7672H73.0017V13.0724H80.2309C81.7254 13.0724 83.0133 13.3144 84.0945 13.7985C85.1757 14.2825 86.0096 14.9786 86.5961 15.8866C87.1862 16.7912 87.4812 17.8724 87.4812 19.1302C87.4812 20.3704 87.1862 21.4392 86.5961 22.3367C86.0096 23.2342 85.1757 23.9214 84.0945 24.3984C83.0133 24.8754 81.7254 25.1139 80.2309 25.1139H75.1482L76.8654 23.4232V29.7672ZM87.7939 29.7672H83.6175L79.4412 23.7094H83.5698L87.7939 29.7672ZM76.8654 14.3815V23.8525L75.1482 22.0399H80.0136C81.2078 22.0399 82.0982 21.782 82.6847 21.2661C83.2748 20.7467 83.5698 20.0347 83.5698 19.1302C83.5698 18.208 83.2748 17.4925 82.6847 16.9837C82.0982 16.4749 81.2078 16.2205 80.0136 16.2205H75.1482L76.8654 14.3815ZM98.6429 30.0534C97.3215 30.0534 96.1007 29.8379 94.9806 29.4068C93.8606 28.9793 92.8907 28.3751 92.071 27.5943C91.2512 26.8169 90.6152 25.9036 90.163 24.8542C89.7107 23.8048 89.4846 22.66 89.4846 21.4198C89.4846 20.1796 89.7107 19.0348 90.163 17.9854C90.6152 16.936 91.2548 16.0209 92.0816 15.24C92.9084 14.4627 93.88 13.8585 94.9965 13.4275C96.106 12.9999 97.3126 12.7862 98.6164 12.7862C99.9379 12.7862 101.152 12.9999 102.257 13.4275C103.363 13.8585 104.324 14.4627 105.141 15.24C105.96 16.0209 106.6 16.9325 107.059 17.9748C107.522 19.0136 107.754 20.1619 107.754 21.4198C107.754 22.66 107.522 23.8083 107.059 24.8648C106.6 25.9212 105.96 26.8364 105.141 27.6102C104.324 28.3804 103.363 28.9793 102.257 29.4068C101.152 29.8379 99.9467 30.0534 98.6429 30.0534ZM98.6164 26.7622C99.3655 26.7622 100.054 26.635 100.683 26.3806C101.309 26.1262 101.86 25.7605 102.337 25.2835C102.814 24.8065 103.185 24.2411 103.45 23.5875C103.711 22.9374 103.842 22.2148 103.842 21.4198C103.842 20.6248 103.711 19.9005 103.45 19.2468C103.185 18.5967 102.819 18.0331 102.353 17.5561C101.883 17.0791 101.33 16.7134 100.694 16.459C100.058 16.2046 99.3655 16.0774 98.6164 16.0774C97.8709 16.0774 97.1837 16.2046 96.5547 16.459C95.9258 16.7134 95.3728 17.0791 94.8958 17.5561C94.4224 18.0331 94.0532 18.5967 93.7882 19.2468C93.5267 19.9005 93.396 20.6248 93.396 21.4198C93.396 22.1971 93.5267 22.9162 93.7882 23.5769C94.0532 24.2376 94.4189 24.8065 94.8853 25.2835C95.3552 25.7605 95.9081 26.1262 96.5441 26.3806C97.1801 26.635 97.8709 26.7622 98.6164 26.7622ZM117.744 29.7672H113.88V16.2205H108.538V13.0724H123.086V16.2205H117.744V29.7672ZM133.034 30.0534C131.713 30.0534 130.492 29.8379 129.372 29.4068C128.252 28.9793 127.282 28.3751 126.462 27.5943C125.643 26.8169 125.007 25.9036 124.554 24.8542C124.102 23.8048 123.876 22.66 123.876 21.4198C123.876 20.1796 124.102 19.0348 124.554 17.9854C125.007 16.936 125.646 16.0209 126.473 15.24C127.3 14.4627 128.27 13.8585 129.383 13.4275C130.496 12.9999 131.704 12.7862 133.008 12.7862C134.329 12.7862 135.543 12.9999 136.649 13.4275C137.751 13.8585 138.712 14.4627 139.532 15.24C140.352 16.0209 140.993 16.9325 141.456 17.9748C141.915 19.0136 142.145 20.1619 142.145 21.4198C142.145 22.66 141.915 23.8083 141.456 24.8648C140.993 25.9212 140.352 26.8364 139.532 27.6102C138.712 28.3804 137.751 28.9793 136.649 29.4068C135.543 29.8379 134.338 30.0534 133.034 30.0534ZM133.008 26.7622C133.757 26.7622 134.446 26.635 135.075 26.3806C135.7 26.1262 136.251 25.7605 136.728 25.2835C137.205 24.8065 137.576 24.2411 137.841 23.5875C138.103 22.9374 138.234 22.2148 138.234 21.4198C138.234 20.6248 138.103 19.9005 137.841 19.2468C137.576 18.5967 137.211 18.0331 136.744 17.5561C136.274 17.0791 135.721 16.7134 135.085 16.459C134.449 16.2046 133.757 16.0774 133.008 16.0774C132.262 16.0774 131.575 16.2046 130.946 16.459C130.317 16.7134 129.764 17.0791 129.287 17.5561C128.81 18.0331 128.441 18.5967 128.18 19.2468C127.918 19.9005 127.787 20.6248 127.787 21.4198C127.787 22.1971 127.918 22.9162 128.18 23.5769C128.441 24.2376 128.807 24.8065 129.277 25.2835C129.747 25.7605 130.3 26.1262 130.936 26.3806C131.572 26.635 132.262 26.7622 133.008 26.7622ZM151.229 23.1105L148.51 25.9513L148.298 21.4887L156.285 13.0724H160.578L153.376 20.8209L151.229 23.1105ZM148.892 29.7672H145.055V13.0724H148.892V29.7672ZM160.986 29.7672H156.476L150.54 22.4904L153.068 19.7503L160.986 29.7672ZM166.567 29.7672H162.704V13.0724H166.567V29.7672ZM177.846 29.7672H173.982V16.2205H168.64V13.0724H183.188V16.2205H177.846V29.7672Z" fill="#FDFDFD"/>
</g>
<defs>
<clipPath id="clip0_1_2">
<rect width="41.8697" height="41.2442" fill="white" transform="translate(0.596252 0.596245)"/>
</clipPath>
<clipPath id="clip1_1_2">
<rect width="127.406" height="17.2673" fill="white" transform="translate(55.7821 12.7862)"/>
</clipPath>
</defs>
</svg>
