<svg width="730" height="219" viewBox="0 0 730 219" fill="none" xmlns="http://www.w3.org/2000/svg">
<path d="M126.978 52.7282L142.581 25.7019H175.526L191.999 54.2181L180.824 73.5876L195.682 99.2485L221.674 54.2181L190.385 0H127.765L63.4477 111.417L77.354 135.504H46.1476L29.6752 106.988L46.1476 78.4304H68.497L83.3139 52.7282H31.2893L0 106.947L31.3307 161.165H159.923L173.83 137.077L189.433 164.145L172.96 192.661H140.015L128.841 173.292H99.1653L125.157 218.363H187.818L219.108 164.145L154.791 52.7282H126.978ZM172.96 135.546L79.1753 135.504L126.068 54.3012L172.96 135.546Z" fill="url(#paint0_linear_29_41)"/>
<path d="M320.057 152.776C313.238 152.776 307.86 151.071 303.664 147.924V181.629H287.27V82.612H303.664V86.2841C307.86 83.1366 313.238 81.4316 320.057 81.4316C337.631 81.4316 347.729 92.8415 347.729 110.678V123.53C347.729 141.366 337.631 152.776 320.057 152.776ZM303.664 123.53C303.664 133.104 308.385 137.038 317.434 137.038C326.483 137.038 331.336 133.104 331.336 123.53V110.678C331.336 102.415 326.483 97.1694 317.434 97.1694C308.385 97.1694 303.664 102.415 303.664 110.678V123.53ZM359.504 151.596V82.612H375.897V87.3333C377.734 85.1038 381.537 82.612 390.455 82.612H400.553V98.3497H390.455C381.012 98.3497 375.897 103.464 375.897 113.432V151.596H359.504ZM404.555 110.678C404.555 92.8415 417.277 81.4316 434.85 81.4316C452.424 81.4316 465.014 92.8415 465.014 110.678V123.53C465.014 141.366 452.424 152.776 434.85 152.776C417.277 152.776 404.555 141.366 404.555 123.53V110.678ZM420.949 123.53C420.949 133.104 425.801 137.038 434.85 137.038C443.9 137.038 448.621 133.104 448.621 123.53V110.678C448.621 102.415 443.9 97.1694 434.85 97.1694C425.801 97.1694 420.949 102.415 420.949 110.678V123.53ZM503.312 151.596C491.377 151.596 482.59 143.989 482.59 131.53V97.0382H472.492V82.612H482.59V69.6283H498.984V82.612H515.508V97.0382H498.984V135.858H515.508V151.596H503.312ZM524.305 110.678C524.305 92.8415 537.026 81.4316 554.6 81.4316C572.173 81.4316 584.764 92.8415 584.764 110.678V123.53C584.764 141.366 572.173 152.776 554.6 152.776C537.026 152.776 524.305 141.366 524.305 123.53V110.678ZM540.698 123.53C540.698 133.104 545.55 137.038 554.6 137.038C563.649 137.038 568.37 133.104 568.37 123.53V110.678C568.37 102.415 563.649 97.1694 554.6 97.1694C545.55 97.1694 540.698 102.415 540.698 110.678V123.53ZM654.274 83.9234L616.241 114.874L655.061 150.284V151.596H632.766L612.962 133.76V151.596H596.569V54.5463H612.962V97.3005L630.93 82.612H654.274V83.9234ZM659.17 151.596V82.612H675.563V151.596H659.17ZM659.038 69.366V51.2676H675.563V69.366H659.038ZM713.865 151.596C701.931 151.596 693.144 143.989 693.144 131.53V97.0382H683.046V82.612H693.144V69.6283H709.537V82.612H726.062V97.0382H709.537V135.858H726.062V151.596H713.865Z" fill="black"/>
<defs>
<linearGradient id="paint0_linear_29_41" x1="-4.71071" y1="64.1276" x2="332.086" y2="138.11" gradientUnits="userSpaceOnUse">
<stop stop-color="#FFDF11"/>
<stop offset="0.001" stop-color="#FFDF11"/>
<stop offset="0.6376" stop-color="#FF1249"/>
<stop offset="1"/>
</linearGradient>
</defs>
</svg>
