<svg viewBox="0 0 72 72" class="wt-icon-big" version="1.1"
     width="300" height="200"
     xmlns="http://www.w3.org/2000/svg" fill="rgb(230, 107, 0)"><path d="M49.186 65.365a21.717 21.717 0 004.428-9.676c.734-4.153.412-8.168.987-12.416L40.8 57.083c2.572 2.572 5.83 5.724 8.387 8.282zM69.903 5.842c-9.02-.977-16.046.555-22.47 6.855-9.241 9.06-15.574 15.532-24.723 24.687-.252.253-.482.529-.74.813l15.586 15.591c.14-.086.274-.183.4-.288 9.51-9.515 16.409-16.147 25.725-25.848 5.958-6.203 7.207-13.099 6.222-21.81zM48.566 29.847l-3.041-3.043c.97-1.01 1.672-2.478 3.346-2.125a2.713 2.713 0 011.703 1.485c.646 1.77-.968 2.526-2.008 3.682zm6.78-6.78l-3.042-3.043c.97-1.009 1.672-2.478 3.347-2.124a2.715 2.715 0 011.703 1.485c.646 1.769-.968 2.526-2.008 3.682zm-39.679 21.46l3.022 3.024 3.028-3.03-3.023-3.023-3.027 3.029zm12.576 12.541l3.038 3.04 3.034-3.035-3.039-3.04-3.033 3.035zm4.211-35.833c-3.717.45-7.31.433-10.986.995a22.211 22.211 0 00-10.743 4.674c2.639 2.64 5.51 5.54 8.017 8.049l13.712-13.718z"></path><path d="M44.933 5.895a32.114 32.114 0 0123.979-4.187l.027.006.026.01a2.206 2.206 0 011.391 1.415l.01.028.005.03c2.143 11.119-.632 20.882-8.31 29.24-.408.46-.843.896-1.304 1.305l-.007.006c-3.144 2.682-4.455 4.895-5.078 7.4-.316 1.268-.458 2.628-.559 4.192-.04.616-.072 1.272-.108 1.966-.052 1.044-.11 2.175-.199 3.386-.57 7.699-3.293 14.355-8.983 19.723-.176.166-.357.324-.539.475a.556.556 0 01-.266.12.764.764 0 01-.122.01h-.002c-.053 0-.093 0-.167.004l-.225.013L34.03 60.561l-5.91 5.912-22.412-22.46 5.831-5.834L.746 27.383l.3-.352a27.517 27.517 0 017.447-6.124 25.565 25.565 0 0112.138-3.474h.003c2.96-.069 6.097-.357 8.949-1.085 2.855-.73 5.384-1.89 7.166-3.671.215-.215.46-.4.675-.561l.002-.001c.225-.17.42-.316.589-.48.802-.775 1.38-1.364 1.854-1.847l.042-.043c.48-.49.865-.88 1.275-1.248.827-.743 1.737-1.378 3.747-2.602zm23.735-3.216a31.114 31.114 0 00-23.205 4.064l-.006.004c-2.004 1.22-2.848 1.815-3.603 2.494-.382.343-.745.711-1.23 1.205l-.043.043c-.475.485-1.06 1.08-1.87 1.865a6.862 6.862 0 01-.662.544l-.023.017a5.34 5.34 0 00-.57.469c-1.958 1.958-4.678 3.18-7.626 3.933-2.951.753-6.171 1.046-9.17 1.116a24.566 24.566 0 00-11.667 3.34l-.007.003a26.518 26.518 0 00-6.877 5.556l10.844 10.847-5.832 5.835 8.608 8.625 5.804-5.806 3.79 3.791-5.808 5.81 8.606 8.624 5.909-5.911 10.807 10.81c.103-.088.203-.178.3-.27 5.482-5.171 8.118-11.58 8.672-19.068a132.2 132.2 0 00.196-3.334c.035-.696.069-1.36.11-2.008.102-1.581.249-3.013.587-4.37.683-2.748 2.131-5.131 5.395-7.916.43-.382.837-.79 1.218-1.22l.006-.007c7.46-8.119 10.146-17.551 8.074-28.346a1.206 1.206 0 00-.727-.74zM18.809 55.726l5.1-5.102-2.376-2.377-5.098 5.1 2.374 2.38z"></path><path d="M9.6 46.782l1.845-1.846.707.707-1.845 1.846-.707-.707zm3.274 3.275l1.845-1.846.707.707-1.845 1.846-.707-.707zm9.582 9.585l1.845-1.846.707.707-1.845 1.846-.707-.707zm3.273 3.275l1.846-1.846.707.707-1.845 1.846-.708-.707z"></path></svg>